<?xml version="1.0" encoding="UTF-8"?>
<svg width="1429.46" id="color_-_2c-pms_185-426" data-name="color  - 2c-pms 185-426" xmlns="http://www.w3.org/2000/svg" viewBox="0 0 1429.46 403">
  <defs>
    <style>
      .cls-1 {
        fill: #24272a;
      }

      .cls-2 {
        fill: #ea0029;
      }
    </style>
  </defs>
  <g>
    <path class="cls-2" d="M424.02,122.29h86.77v27.93h-54.79v31.33h47.33v27.51h-47.33v56.07h-31.98V122.29Z"/>
    <path class="cls-2" d="M523.99,214.8v-92.52h31.98v92.09c0,17.7,10.23,25.16,21.53,25.16s21.32-7.46,21.32-25.16v-92.09h31.98v92.52c0,34.54-22.39,52.87-53.3,52.87s-53.51-18.33-53.51-52.87Z"/>
    <path class="cls-2" d="M711.79,150.42v114.7h-31.98v-114.7h-35.17v-28.13h102.32v28.13h-35.18Z"/>
    <path class="cls-2" d="M761.02,214.8v-92.52h31.98v92.09c0,17.7,10.24,25.16,21.53,25.16s21.32-7.46,21.32-25.16v-92.09h31.98v92.52c0,34.54-22.39,52.87-53.3,52.87s-53.51-18.33-53.51-52.87Z"/>
    <path class="cls-2" d="M960.13,206.49l28.57,58.63h-36.46l-22.6-49.25h-13.22v49.25h-31.98V122.29h47.96c28.78,0,46.05,17.05,46.05,44.13,0,17.48-10.02,30.91-18.33,40.08ZM916.42,188.36h21.74c4.91-5.97,7.89-13.42,7.89-21.31,0-8.52-4.47-16.84-14.49-16.84h-15.14v38.15Z"/>
    <path class="cls-2" d="M999.55,122.29h87.62v27.93h-55.64v28.13h47.33v27.51h-47.33v31.34h56.07v27.93h-88.05V122.29Z"/>
  </g>
  <g>
    <path class="cls-1" d="M1224.69,205l1.92,19.62h1.07l1.92-21.53,15.35-80.8h32.62l-31.55,144.11h-37.1l-17.69-85.92-1.07-17.05h-1.92l-1.49,17.05-17.91,85.92h-36.46l-31.76-144.11h34.11l15.56,82.5,1.49,19.83h1.49l1.49-19.62,17.27-82.71h35.39l17.27,82.71Z"/>
    <path class="cls-1" d="M1290.75,122.29h87.62v27.93h-55.64v28.13h47.33v27.51h-47.33v31.34h56.06v27.93h-88.04V122.29Z"/>
    <path class="cls-1" d="M1396.69,265.12V122.29h31.53v142.83h-31.53Z"/>
  </g>
  <g>
    <path class="cls-1" d="M931.57,313.52l-.58,3.27c-.09.77-.38,1.15-1.06,1.15h-19.41l-10.09,63.92c-.09.58-.48.96-1.15.96h-3.75c-.67,0-.96-.38-.87-.96l10.09-63.92h-19.13c-.67,0-.96-.29-.77-1.05l.48-3.27c.09-.77.38-1.16,1.15-1.16h44.21c.67,0,.96.38.86,1.06Z"/>
    <path class="cls-1" d="M965.87,344.47c0,1.63-.29,3.46-.58,5.19l-1.06,6.63c-.19,1.44-1.05,2.21-2.69,2.21h-30.09l-.86,5.28c-.19,1.34-.39,2.69-.39,3.94,0,7.4,4.23,11.15,11.63,11.15,7.88,0,11.92-3.27,14.9-8.07.48-.77,1.06-.87,1.63-.48l2.4,1.34c.77.48.67,1.06.29,1.73-3.65,6.15-10.28,10.38-19.41,10.38-11.05,0-16.92-5.96-16.92-15.47,0-1.35.19-2.69.38-4.13l2.5-15.76c1.83-11.44,9.9-19.13,21.53-19.13,10.38,0,16.73,6.06,16.73,15.19ZM960.49,345.14c0-7.12-4.23-10.86-11.53-10.86-8.27,0-14.42,4.99-15.95,14.7l-.87,5.09h27.01l.87-4.8c.29-1.44.48-2.88.48-4.13Z"/>
    <path class="cls-1" d="M1016.21,341.29c.29,1.16,0,1.54-.67,1.73l-3.17,1.06c-.67.19-1.06-.1-1.25-.67-1.25-5.28-4.03-8.94-10.86-8.94-8.17,0-13.74,4.9-15.48,15.28l-2.11,14.03c-.29,1.44-.39,2.69-.39,3.84,0,7.4,4.04,11.05,10.87,11.05s11.24-3.27,14.03-9.13c.38-.77.77-.96,1.44-.67l2.98,1.25c.77.29.77.87.38,1.44-3.46,7.4-9.61,12.2-19.23,12.2-10.38,0-16.15-5.86-16.15-15.47,0-1.35.1-2.79.38-4.23l2.41-14.99c1.92-11.92,9.13-19.8,20.76-19.8,10.28,0,14.23,5.38,16.05,12.01Z"/>
    <path class="cls-1" d="M1066.75,342.54c0,1.25-.09,2.69-.38,4.04l-5.58,35.27c-.09.67-.48.96-1.15.96h-3.37c-.77,0-1.15-.38-.96-.96l5.38-34.21c.29-1.44.38-2.88.38-4.13,0-5.77-2.69-9.03-8.84-9.03s-13.07,5.19-16.92,12.59l-5.48,34.8c-.09.58-.48.96-1.15.96h-3.46c-.67,0-.96-.38-.87-.96l11.24-70.83c.1-.58.48-.96,1.15-.96h3.46c.67,0,.96.38.86.96l-4.52,28.16c4.23-5.58,10.48-9.9,17.39-9.9,8.37,0,12.78,5.38,12.78,13.26Z"/>
    <path class="cls-1" d="M1120.36,342.54c0,1.25-.09,2.69-.38,4.04l-5.58,35.27c-.09.67-.48.96-1.15.96h-3.37c-.77,0-1.15-.38-.96-.96l5.38-34.21c.29-1.44.38-2.88.38-4.13,0-5.77-2.69-9.03-8.84-9.03s-12.98,5.09-16.82,12.49l-5.58,34.89c-.09.67-.48.96-1.15.96h-3.37c-.77,0-1.06-.38-.96-.96l8.07-50.65c.1-.58.48-.96,1.16-.96h3.36c.67,0,.96.39.87.96l-1.25,8.07c4.13-5.67,10.48-9.99,17.39-9.99,8.37,0,12.78,5.38,12.78,13.26Z"/>
    <path class="cls-1" d="M1175.03,344.95c0,1.44-.19,3.08-.38,4.33l-2.4,15.19c-1.92,12.1-9.71,19.31-22.3,19.31-11.05,0-17.39-6.15-17.39-15.47,0-1.44.19-2.88.38-4.33l2.5-15.38c1.83-12.11,9.52-19.32,22.1-19.32,11.05,0,17.49,6.34,17.49,15.67ZM1140.71,349.47l-2.21,14.32c-.19,1.15-.38,2.4-.38,3.84,0,7.21,4.61,11.05,12.11,11.05,8.65,0,14.99-4.8,16.53-14.8l2.21-13.84c.29-1.44.48-3.08.48-4.42,0-7.2-4.71-11.15-12.11-11.15-8.74,0-14.99,4.9-16.63,14.99Z"/>
    <path class="cls-1" d="M1202.2,311.02l-11.24,70.83c-.09.58-.48.96-1.15.96h-3.46c-.67,0-.96-.38-.87-.96l11.24-70.83c.1-.58.48-.96,1.15-.96h3.46c.67,0,.96.38.86.96Z"/>
    <path class="cls-1" d="M1251.98,344.95c0,1.44-.19,3.08-.38,4.33l-2.4,15.19c-1.92,12.1-9.71,19.31-22.3,19.31-11.05,0-17.39-6.15-17.39-15.47,0-1.44.19-2.88.38-4.33l2.5-15.38c1.83-12.11,9.52-19.32,22.1-19.32,11.05,0,17.49,6.34,17.49,15.67ZM1217.67,349.47l-2.21,14.32c-.19,1.15-.38,2.4-.38,3.84,0,7.21,4.61,11.05,12.11,11.05,8.65,0,14.99-4.8,16.53-14.8l2.21-13.84c.29-1.44.48-3.08.48-4.42,0-7.2-4.71-11.15-12.11-11.15-8.74,0-14.99,4.9-16.63,14.99Z"/>
    <path class="cls-1" d="M1306.84,336.11l-7.21,45.36c-2.4,14.8-11.53,21.53-22.77,21.53-7.59,0-13.27-3.08-16.73-7.02-.48-.48-.48-1.06,0-1.54l1.83-2.21c.58-.58,1.16-.58,1.63,0,2.69,3.08,7.12,5.77,13.07,5.77,8.56,0,15.48-4.52,17.49-17.01l1.44-9.42c-4.03,6.24-10.86,11.82-18.64,11.82-8.55,0-13.36-5.58-13.36-14.61,0-1.44.1-3.08.38-4.8l2.41-15.09c1.83-11.72,8.94-19.03,20.85-19.03,6.83,0,13.55,2.02,18.84,4.42.87.48.96.86.77,1.83ZM1300.88,337.83c-4.04-1.73-8.55-2.98-13.55-2.98-8.84,0-14.03,5.28-15.47,14.32l-2.31,14.23c-.29,1.73-.38,3.17-.38,4.61,0,6.83,3.17,10.28,9.13,10.28s13.35-4.71,18.55-14.42l4.04-26.05Z"/>
    <path class="cls-1" d="M1330.47,331.21l-8.08,50.65c-.09.58-.48.96-1.15.96h-3.46c-.67,0-.96-.38-.87-.96l8.07-50.65c.1-.58.48-.96,1.16-.96h3.46c.67,0,.96.39.87.96ZM1333.64,311.21l-1.54,9.33c-.1.67-.58,1.06-1.25,1.06h-3.37c-.67,0-1.06-.39-.86-1.06l1.44-9.33c.2-.77.58-1.15,1.35-1.15h3.27c.77,0,1.06.38.96,1.15Z"/>
    <path class="cls-1" d="M1382.07,344.47c0,1.63-.29,3.46-.58,5.19l-1.05,6.63c-.2,1.44-1.06,2.21-2.69,2.21h-30.09l-.86,5.28c-.2,1.34-.39,2.69-.39,3.94,0,7.4,4.23,11.15,11.63,11.15,7.88,0,11.92-3.27,14.9-8.07.48-.77,1.06-.87,1.63-.48l2.4,1.34c.77.48.67,1.06.29,1.73-3.65,6.15-10.28,10.38-19.41,10.38-11.05,0-16.92-5.96-16.92-15.47,0-1.35.19-2.69.38-4.13l2.5-15.76c1.83-11.44,9.9-19.13,21.53-19.13,10.38,0,16.73,6.06,16.73,15.19ZM1376.69,345.14c0-7.12-4.23-10.86-11.53-10.86-8.27,0-14.42,4.99-15.95,14.7l-.87,5.09h27.01l.87-4.8c.29-1.44.48-2.88.48-4.13Z"/>
    <path class="cls-1" d="M1429.43,340.91c.09.87,0,1.25-.96,1.44l-2.5.77c-.86.29-1.24,0-1.44-.58-.86-5.76-4.61-8.36-10.57-8.36-9.71,0-12.78,5.58-12.78,9.61,0,4.9,4.81,6.92,11.25,9.52,7.78,3.17,13.94,6.53,13.94,14.42,0,7.4-5.29,16.15-18.74,16.15-9.52,0-16.15-4.81-17.2-12.11-.19-.96,0-1.35.77-1.54l2.69-.86c.87-.29,1.25-.1,1.44.67.67,5.67,5.48,8.94,12.3,8.94,9.71,0,13.26-5.96,13.26-10.77,0-5.48-4.71-7.4-11.82-10.28-7.78-3.27-13.36-6.34-13.36-13.94,0-6.63,5.09-14.6,17.97-14.6,8.94,0,14.71,4.52,15.77,11.53Z"/>
  </g>
  <g>
    <g>
      <circle class="cls-2" cx="316.37" cy="328.45" r="18.64"/>
      <circle class="cls-2" cx="339.82" cy="272.64" r="16.77"/>
      <circle class="cls-2" cx="347.06" cy="218.18" r="15.1"/>
      <circle class="cls-2" cx="334.11" cy="167.65" r="13.59"/>
      <circle class="cls-2" cx="307.59" cy="132.56" r="12.23"/>
      <circle class="cls-2" cx="274.11" cy="108.34" r="11"/>
      <circle class="cls-2" cx="239.85" cy="97.54" r="9.9"/>
      <circle class="cls-2" cx="207.3" cy="102.72" r="8.91"/>
      <circle class="cls-2" cx="179.38" cy="117.2" r="8.02"/>
      <circle class="cls-2" cx="160.94" cy="138.67" r="7.22"/>
      <circle class="cls-2" cx="160.64" cy="167.49" r="6.5"/>
    </g>
    <g>
      <circle class="cls-2" cx="257.52" cy="18.64" r="18.64"/>
      <circle class="cls-2" cx="197.47" cy="26.23" r="16.77"/>
      <circle class="cls-2" cx="146.68" cy="47.19" r="15.1"/>
      <circle class="cls-2" cx="109.39" cy="83.67" r="13.59"/>
      <circle class="cls-2" cx="92.26" cy="124.18" r="12.23"/>
      <circle class="cls-2" cx="88.03" cy="165.29" r="11"/>
      <circle class="cls-2" cx="95.81" cy="200.36" r="9.9"/>
      <circle class="cls-2" cx="116.57" cy="225.95" r="8.91"/>
      <circle class="cls-2" cx="143.07" cy="242.89" r="8.02"/>
      <circle class="cls-2" cx="170.88" cy="248.13" r="7.22"/>
      <circle class="cls-2" cx="195.99" cy="233.98" r="6.5"/>
    </g>
    <g>
      <circle class="cls-2" cx="18.64" cy="224.5" r="18.64"/>
      <circle class="cls-2" cx="55.25" cy="272.72" r="16.77"/>
      <circle class="cls-2" cx="98.79" cy="306.22" r="15.1"/>
      <circle class="cls-2" cx="149.02" cy="320.27" r="13.59"/>
      <circle class="cls-2" cx="192.67" cy="314.85" r="12.23"/>
      <circle class="cls-2" cx="230.39" cy="297.96" r="11"/>
      <circle class="cls-2" cx="256.87" cy="273.69" r="9.9"/>
      <circle class="cls-2" cx="268.66" cy="242.91" r="8.91"/>
      <circle class="cls-2" cx="270.07" cy="211.49" r="8.02"/>
      <circle class="cls-2" cx="260.71" cy="184.79" r="7.22"/>
      <circle class="cls-2" cx="235.9" cy="170.12" r="6.5"/>
    </g>
  </g>
</svg>