<?xml version="1.0" encoding="UTF-8"?><svg id="a" xmlns="http://www.w3.org/2000/svg" viewBox="0 0 2273.24 569.72"><defs><style>.b{fill:#c27dbe;}.c{fill:none;fill-rule:evenodd;stroke:#332f2f;stroke-linecap:round;stroke-linejoin:round;stroke-width:6px;}.d{fill:#42cf97;}.e{fill:#2f99b2;}.f{fill:#7bddb5;}.g{fill:#f67d90;}.h{fill:#3ea87f;}.i{fill:#c06091;}.j{fill:#58acc1;}.k{fill:#f7d843;}.l{fill:#f59c3e;}.m{fill:#f9b343;}.n{fill:#b15cad;}.o{fill:#f55c74;}.p{fill:#ce80a8;}.q{fill:#f79dab;}.r{fill:#ce97ca;}.s{fill:#acd6e1;}.t{fill:#d9a0be;}</style></defs><path class="k" d="M63.66,436.87c3.03-27.01,9.62-55.38,28.91-74.52,18.19-18.04,45.6-24.91,71.01-21.64,25.41,3.28,48.93,15.76,68.95,31.75,20.02,15.99,36.94,35.45,53.74,54.8-47.13,16.35-92.02,39.14-133.11,67.44-20.69,14.25-39.22,30.58-58.59,46.46-19.11,15.67-28.05,5.05-31.19-16.17-4.26-28.8-2.97-59.29.27-88.11Z"/><path class="m" d="M148.84,439.56c7.14-9.27,17.94-19.64,28.75-15.17,6,2.48,9.33,8.78,14.05,13.23,13.39,12.6,36.09,8.08,50.36-3.5,4.37-3.54,8.33-7.67,13.25-10.4,4.92-2.73,11.21-3.86,16.1-1.07,3.78,2.16,6.11,6.3,9.86,8.53,6.05,3.6,14.11,1.14,19.47-3.43,5.36-4.56,8.87-10.86,13.23-16.39,11.9-15.09,30.79-24.42,50-24.7,19.21-.29,38.37,8.48,50.71,23.21,6.21,7.4,10.86,17.04,9.05,26.53-1.78,9.32-9.24,16.35-16.35,22.64-25.35,22.43-51.29,44.18-77.79,65.24-16.55,13.16-33.68,26.24-53.57,33.42-25.49,9.21-53.4,8-80.47,6.68-20.59-1.01-41.18-2.01-61.77-3.02-16.38-.8-39.97,2.35-53.94-7.78-25.43-18.44,16.7-46.6,28.13-60.88,13.96-17.45,27.3-35.44,40.93-53.15Z"/><path class="l" d="M308.61,469.38c3.97-4.48,8.07-9.05,13.36-11.84,5.29-2.8,12.12-3.49,17.09-.16,4.33,2.9,6.52,8.23,10.78,11.24,7.26,5.14,17.74,1.59,24.15-4.57,6.42-6.16,10.4-14.43,16.38-21.02,5.97-6.59,15.5-11.51,23.66-7.98,8.06,3.49,10.96,13.23,12.92,21.79,4.71,20.57,9.43,41.13,14.14,61.7,2.1,9.17,4,19.57-1.27,27.37-4.76,7.05-13.82,9.55-22.14,11.32-59.07,12.72-131.72,19.09-190.64,2.47,27.1-29.95,54.64-59.99,81.57-90.33Z"/><path class="r" d="M580.86,299.02c11.01,4.45,21.54,10.84,28.86,20.2,7.32,9.35,11.06,21.98,7.89,33.43-3.06,11.06-11.82,19.46-20.21,27.28-28.76,26.79-57.51,53.58-86.27,80.37-10.5,9.78-23.42,20.31-37.48,17.45-11.52-2.34-19.34-13.02-24.49-23.59-17.11-35.09-15.45-74.9-.45-110.27,12.48-29.42,39.45-45.25,70.74-50.8,20.5-3.64,42.04-1.88,61.41,5.93Z"/><path class="b" d="M536.04,352.1c9.29,1.17,8.15,15.71,14.63,22.47,5.38,5.61,15.11,4.22,21.28-.51,6.17-4.73,9.9-11.86,14.36-18.23,5.64-8.05,13.83-15.63,23.65-15.56,8.87.06,16.49,6.41,21.78,13.53,14.94,20.14,16.7,48.04,8.83,71.85-7.87,23.81-24.31,43.96-42.95,60.73-15.14,13.62-32.34,25.58-51.91,31.24-19.57,5.66-41.82,4.36-58.81-6.88-9.09-6.01-16.58-15.09-18.69-25.79-3.74-18.99,17.69-40.71,26.29-56.51,13.84-25.44,27.69-50.89,41.53-76.33Z"/><path class="n" d="M572.56,437.69c2.63-2.86,5.5-5.77,9.21-6.9,3.72-1.13,8.48.22,9.85,3.85,1.22,3.25-.53,7.28,1.37,10.19,3.17,4.88,10.62.51,14.39-3.92,11.41-13.43,22.81-26.85,34.22-40.28,7.42,23,5.11,48.97-6.24,70.3-7.68,14.43-19.37,27.05-23.23,42.93-2.74,11.27-1.23,23.09.29,34.6-8.92,4.07-18.72-3.26-25.3-10.53s-14.43-15.79-24.16-14.53c-9.9,1.28-15.25,11.79-21.96,19.19-11.1,12.24-29.69,17.04-45.33,11.7-6.74-2.3,29.08-51.7,32.66-55.9,16.2-19,26.98-42,44.23-60.69Z"/><path class="q" d="M894.92,235c40.77-9.32,85.04-2.34,120.97,19.08-54.24,55.27-99.67,118.44-144.85,181.33-18.09,25.17-36.17,50.34-54.26,75.51-7.36,10.25-14.92,20.69-25.18,28.02-29.58,21.15-70.83,10.54-105.93,20.03-2.59-42.77-4.63-85.56-6.13-128.38-.59-16.68-.88-34.3,7.22-48.89,10.33-18.63,31.66-27.83,51.63-35.25,16.4-6.1,35.08-12.38,47.41-25.45,8.17-8.67,11.76-20.48,18.88-29.96,21.29-28.34,56.09-48.21,90.26-56.03Z"/><path class="g" d="M824.26,384.82c5.84-7.92,13.68-16.68,23.44-15.45,4.78.61,8.92,3.61,13.58,4.85,8.68,2.31,18.02-1.92,24.36-8.3,6.34-6.37,10.33-14.64,14.55-22.57,15.02-28.26,34.29-54.25,56.96-76.84,3.75,5.01,10.89,6.33,17.04,5.17,6.15-1.16,11.71-4.31,17.46-6.77,31.78-13.6,71.91-4.15,94.28,22.2,8.03,9.46,14.16,20.98,24.63,27.64,8.15,5.18,17.98,6.78,27.17,9.78,9.18,3,18.6,8.25,22.03,17.28,4.28,11.28-2.26,23.52-8.58,33.79-27.73,45.09-55.45,90.17-83.18,135.26-5.24,8.52-10.56,17.14-17.87,23.97-11.94,11.17-28.31,16.61-44.56,18.33s-32.65.04-48.95-1.32c-91.67-7.64-184.2-4.89-275.26,8.19,5.12-17.03,14.22-32.85,26.36-45.84-4.41,4.72,7.96,11.52,10.77,12.03,6.56,1.2,8.82-1.09,13.09-5.33,11.68-11.61,19.89-31.12,29.02-44.93,20.43-30.91,41.66-61.3,63.66-91.13Z"/><path class="o" d="M1013.17,425.9c3.66-8.13,7.29-16.71,14.16-22.4,6.86-5.69,18.12-7.24,24.28-.8,6.57,6.87,4.61,19.22,11.67,25.59,4.45,4.02,11.39,4.25,16.95,1.99,5.56-2.25,10-6.57,14.03-11.02,14.38-15.87,25.46-34.7,32.35-54.98,2.77-8.16,5.39-17.27,12.63-21.94,10.72-6.92,24.73-.3,35.66,6.28,19.16,11.54,39.36,24.19,48.96,44.39,6.46,13.61,7.31,29.1,8.05,44.15,1.28,26.06,2.57,52.12,3.85,78.18.39,7.84.54,16.45-4.36,22.58-4.57,5.73-12.31,7.69-19.53,9.02-46.59,8.58-94.18,5-141.05,1.06-47.68-4.01-93.44-4.71-141.08-2.35,6.63-19.08,29.71-31.97,41.55-47.99,16.48-22.29,30.49-46.51,41.88-71.78Z"/><path class="f" d="M1346.4,230.72c8.32,7.94,16.63,15.88,24.95,23.82,7.32-6.33,14.64-12.66,21.96-18.98,14.22,8.46,26.7,19.82,36.45,33.19,3.09-22.72,6.19-45.43,9.28-68.15,8.62-5.12,12.44-15.78,12.96-25.79s-1.57-19.98-1.69-30.01c-.6-48.93,44.59-88.79,46.65-137.68-.33,50.22,43.4,93.77,39.57,143.84-1.77,23.14-13.61,44.13-25.17,64.25-58.29,101.45-116.58,202.91-174.86,304.36-8.92,15.53-20.58,32.88-38.43,34.29-14.44,1.14-27.77-9.46-34.25-22.42-6.48-12.96-7.49-27.87-8.12-42.35-2.27-51.95-1.14-103.99,1.66-155.89,1.14-21.05,1.77-42.32,5.43-63.12,1.62-9.2,4.07-33.23,13.88-38.33,14.01-7.27,27.04,30.46,33.36,38.7,3.32-2.71,36.45-39.66,36.37-39.74Z"/><path class="d" d="M1365.96,346.75c-.57,12.24,15.57,19.54,27.03,15.22s18.63-15.51,24.78-26.11c25.9-44.7,48.11-91.42,70.28-138.09,1.88,3.77,7.49,4.15,11.01,1.84,3.52-2.31,5.43-6.34,7.17-10.17,9.22-20.26,18.44-40.52,27.66-60.77-1.49,15.85-2.61,33.23,6.58,46.23,7.04,9.96,19.04,15.56,25.99,25.58,9.17,13.23,7.58,30.78,6.89,46.86-.69,16.08,1.01,34.53,13.86,44.23,11.56,8.73,30.96,9.59,34.94,23.52,1.98,6.94-1.18,14.2-4.27,20.72-28.41,60.04-56.82,120.07-85.23,180.11-3.77,7.96-7.77,16.22-14.74,21.6-7.26,5.6-16.74,7.29-25.86,8.24-62.42,6.47-127.71-13.56-187.15,6.54-8.92,3.01-19.45,6.7-27.05,1.14-14.86-10.89.14-30.88,7.62-41.04,10.61-14.42,17.09-30.41,24.5-46.69,9.08-19.95,18.28-39.84,27.62-59.67,4.84-10.28,9.72-20.55,14.63-30.79,3.52-7.34,13.4-20.51,13.77-28.51Z"/><path class="h" d="M1528.55,399.55c3.26-7.01,8.02-15.06,15.74-15.3,9.9-.31,14.59,11.9,16.42,21.64,22.57-28.83,41.98-60.13,57.77-93.17,9.31,22.01-9.21,50.67,4.91,69.96,3.91,5.34,9.83,8.91,16.04,11.2,16.93,6.25,38.43,4.98,49.46,19.26,6.51,8.44,7.1,19.89,7.42,30.54.77,25.91,1.55,51.82,2.32,77.73.18,6.14.19,12.84-3.61,17.66-4.93,6.24-14.03,6.77-21.98,6.76-68.21-.04-136.43-.08-204.64-.13,5.05-50.91,40.09-99.31,60.16-146.15Z"/><path class="s" d="M1768.4,286.78c13.1,5.81,26.2,11.62,39.29,17.43.15-14.59.3-29.19.45-43.78,56.97,7.96,114.81,9.64,172.15,4.98-74.08,66.12-124.21,158.52-207.83,212.07,3.45-2.21-2.56-46.01-2.84-52.05-.83-18.18-1.49-36.37-1.98-54.57-.77-28.16-5.31-56.16.76-84.08Z"/><path class="j" d="M1859.23,314.34c2.3-3.57,4.72-7.24,8.3-9.53,3.57-2.29,8.64-2.82,11.89-.09,2.07,1.74,3.07,4.45,5,6.34,3.91,3.83,10.59,3.16,15.18.17,4.58-2.99,7.66-7.73,10.98-12.08,20.33-26.57,55.03-41.39,88.28-37.69,1.17,34.81,2.33,69.63,3.5,104.44.35,10.56.68,21.36-2.43,31.46-3.88,12.64-12.75,23.03-21.4,33.04-29,33.56-58.01,67.12-87.01,100.68-5.96,6.89-12.19,13.99-20.49,17.73-8.69,3.91-18.61,3.66-28.14,3.31-40.78-1.49-81.54-3.48-122.27-5.98-3.12-11.18-6.27-22.65-5.24-34.21,1.03-11.56,7.14-23.4,17.83-27.92,7.01-2.96,15.01-2.47,22.3-4.66,15.92-4.77,23.96-19.84,28.79-34.52,4.09-12.46,8.98-20.59,16.14-31.34,21.19-31.87,38.02-66.88,58.8-99.15Z"/><path class="e" d="M1836.75,464.41c5.49-4.96,13.71-9.98,19.62-5.53,6.71,5.04,2.63,16.58,7.59,23.35,4.64,6.34,15.19,4.93,20.7-.67,5.51-5.6,7.37-13.72,9.23-21.35,6.38-26.18,15.4-51.71,26.88-76.09,2.36-5.01,4.94-10.13,9.19-13.67s10.63-5.14,15.42-2.36c9.1,5.29,7.79,22.35,18.1,24.51,5.96,1.25,11.41-4.15,13.56-9.85,2.15-5.7,2.32-12.03,4.75-17.61,2.43-5.58,8.56-10.48,14.27-8.38,5.53,2.04,7.12,8.97,7.74,14.83,6.11,57.39-2.1,115.24-10.29,172.37-.73,5.12-1.76,10.76-5.85,13.93-3.66,2.84-8.71,2.82-13.35,2.68-45.64-1.4-91.27-2.79-136.91-4.19-11.51-.35-23.02-.7-34.54-1.06-8.95-.27-22.88,1.97-31.01-2.33-17.16-9.08,7.28-27.18,14.35-35.6,15.74-18.74,32.34-36.57,50.52-52.98Z"/><path class="t" d="M2146.39,243.58c17.14,12.56,21.52,35.84,24.92,56.82s8.71,44.32,26.63,55.73c-39.74,56.58-70,119.19-98.49,182.19-1.76,3.88-3.61,7.91-6.9,10.62-12.96,10.67-36.25-6.25-48.12,5.63-.32-19.8-.64-39.6-.96-59.4-.08-4.99-.11-10.23,2.23-14.65,4.83-9.12,17-10.68,27.31-11.13-2.9,15.73-3.06,31.96-.47,47.74,6.1,5.11,16.17.8,19.84-6.26,3.67-7.07,2.89-15.51,2.23-23.44-2.89-34.8-1.75-69.9,3.33-104.45-26.05-7.38,7.9-32.15,16.12-41.87,22.81-27.01,27.68-63.67,32.31-97.52Z"/><path class="p" d="M2191.19,346.79c15.6,12.85,31.61,26.51,39.7,45.04,10.02,22.96,6.03,50.1-4.79,72.69-10.82,22.59-27.81,41.55-44.56,60.17-8.24,9.16-16.84,18.58-28.13,23.52-24.03,10.51-52.29-2.14-77.92,3.47,13.38-15.68,22.89-34.8,27.49-54.88,3.83-16.72-.8-34.39.45-51.66.17-2.39.37-4.86,1.53-6.95,1.16-2.09,3.59-3.68,5.91-3.1,3.34.83,4.22,5.04,4.93,8.41s3.2,7.41,6.5,6.43c1.7-.51,2.72-2.21,3.46-3.82,6.15-13.19,5.34-28.38,6.27-42.9.93-14.52,4.62-30.39,16.44-38.87.47-.34,13.66,15.1,23.13,5.86,5.99-5.84,7.68-26.01,19.58-23.4Z"/><path class="i" d="M2175.8,458.48c2.06-3.3,4.24-6.74,7.61-8.69,3.37-1.95,8.29-1.81,10.56,1.35,1.17,1.63,1.46,3.75,2.54,5.44,2.97,4.61,10.52,3.62,14.24-.41,3.72-4.03,4.76-9.75,6.03-15.09s3.29-11.05,8.01-13.84c1.79-1.06,4.24-1.55,5.85-.23,1.59,1.29,1.65,3.65,1.57,5.69-1.2,32.5-2.41,65.01-3.61,97.51-.19,5.18-.51,10.72-3.64,14.85-4.39,5.78-12.57,6.72-19.82,7.12-27.97,1.53-56,2.04-84.01,1.55-2.63-.05,20.06-39.62,21.23-41.49,11.15-17.92,22.29-35.84,33.44-53.75Z"/><path class="c" d="M3,555.89s155.15,6.74,285.84,4.43c85-1.5,167.08.41,165.9-12.01-3-31.52-21.02-163.64-87.08-151.63-66.06,12.01-177.16,157.64-147.13,145.63,30.03-12.01,91.58-79.57,91.58-87.08s-73.57-124.6-171.15-117.1c-97.59,7.51-69.06,204.19-63.06,189.17,6.01-15.01,22.52-147.13,30.03-108.09,7.5,39.03,19.51,124.61,21.02,102.09,1.5-22.52,15.01-192.17,25.52-145.63,10.51,46.54,18.02,162.14,18.02,141.12s16.51-154.64,19.52-103.59c3,51.05-4.51,130.62,10.51,133.62,15.01,3,106.6,0,108.1-15.02,1.5-15.01,19.52-76.57,19.52-55.55s9.01,70.57,15.01,54.05c6-16.51,13.51-105.09,19.52-67.56,6.01,37.53,15.01,82.58,15.01,67.56s7.51-85.57,12.01-54.05c4.51,31.53,12.01,61.56,12.01,61.56,0,0,99.09,12.01,100.59,4.51,1.5-7.51,49.54-180.16,60.05-157.65,10.51,22.52,61.56,169.65,51.04,174.16-10.51,4.5-45.04-57.05-55.55-42.04-10.51,15.01,106.59-12.02,85.57-130.62-21.02-118.6-180.16-93.08-204.18-15.01-24.02,78.07,27.03,148.63,91.58,151.64,64.56,3-16.51,33.02-13.51,25.51,3-7.5,145.63-2.99,145.63-2.99,0,0,48.04,9,24.02,4.5-24.02-4.5-19.52-150.13-13.51-174.15,6.01-24.02,111.1-48.04,117.1-57.06,6.01-9.01-3,249.22,9.01,213.19,12.01-36.03-3-213.19,13.51-232.7,16.51-19.52,54.05-42.03,112.6-51.05,58.56-9.01,147.13,15.01,165.15,31.53,18.01,16.51,19.51,48.04,19.51,64.56s7.5,202.68-3,195.17c-10.51-7.51-18.01-154.64-30.03-162.14-12.01-7.51-70.56-12.01-70.56-12.01,0,0,4.51,216.19-12.01,174.16-16.52-42.04,1.49-217.69-10.51-219.2-12.02-1.5-67.56-10.51-69.06-4.51-1.5,6.01,9,235.71-4.51,208.68-13.51-27.02-4.5-168.15-25.52-165.15-21.02,3-57.05,1.5-57.05,16.52s6.01,171.15-6,175.65c-12.01,4.51-118.61,10.51-58.56,0,60.06-10.5,369.33,0,370.83-9,1.5-9.01,4.51-205.69-1.5-211.69-6.01-6.01-16.52-15.02-6.01-6.01,10.51,9,99.09,30.02,105.1,49.54,6,19.52,15.01,169.65,6,174.15-9,4.51-82.57,4.51-51.04-1.49,31.52-6.01,79.57-6.01,79.57-6.01,0,0,31.62-2.99,25.48,3.16-6.14,6.14-24.54,14.31-30.68-55.23-6.14-69.53-4.1-202.48,4.09-212.71,8.18-10.23,36.81-38.86,36.81-38.86,0,0,10.23,34.77,18.41,26.59,8.18-8.18,26.59-32.73,30.68-26.59,4.1,6.14,24.54,24.54,24.54,24.54l32.73-24.54s34.77,63.41,22.49,63.41-128.85-4.1-130.89,2.04c-2.05,6.13-10.23,116.59,6.13,116.59s98.18,10.22,102.27-6.13c4.09-16.37,0-90-2.05-57.27-2.04,32.72-4.09,177.94-4.09,177.94,0,0-45,6.13-26.59,4.09,18.41-2.04,57.27-6.13,57.27-6.13l4.09-335.43s137.04-6.14,120.68-4.09c-16.36,2.05-12.53-86.16-19.43-87.69-6.91-1.53-80.54-4.6-76.7-4.6s19.94-16.11,29.14-40.66c9.2-24.54,14.57-65.19,9.97-54.45-4.6,10.74,44.48,79.77,31.45,85.9-13.04,6.14-68.26,10.74-69.8,22.25-1.54,11.5-9.21,77.46-.76,67.49,8.43-9.97,16.87-47.55,20.7-32.98,3.84,14.58,8.44,29.92,13.81,21.47,5.37-8.43,24.54-32.21,25.31-19.17.76,13.04-6.13,274.58,0,261.54,6.13-13.04,15.34-181.78,19.17-182.55,3.84-.77,22.25.77,24.54-6.14,2.3-6.9,2.3-32.21,0-9.97-2.3,22.24,8.44,324.44.77,326.73-7.67,2.3-79.77.77-54.46,4.61,25.31,3.83,74.4,10.74,74.4-.77s-13.81-265.38-3.84-260.01c9.97,5.37,38.35,39.11,41.42,30.68,3.07-8.44,6.91-43.72,1.53-13.04-5.36,30.69,9.2,263.85,4.6,243.15-4.6-20.71-27.61-174.88-17.64-173.35,9.97,1.53,73.63,31.45,77.47,27.61,3.83-3.83,2.3-32.21,1.53-11.5-.77,20.71,13.81,169.51,1.53,170.27-12.27.77-49.09-4.6-31.45-9.2,17.64-4.6,63.66-6.14,63.66-6.14,0,0,27.66,9.98,14.13,8.75-13.53-1.23-20.92-68.89-8.61-70.12,12.3-1.23,317.04-10.95,266.6-1.11-50.44,9.85-223.54,19.97-226,2.74-2.46-17.22-1.23-204.62,2.46-203.39,3.7,1.23,36.91,13.53,36.91,17.23s8.61,120.56,4.92,94.72c-3.69-25.83,0-136.56,0-136.56,0,0,193.15,13.53,196.84,6.15,3.7-7.38,1.24-35.67-3.69-13.53-4.92,22.15,8.37,310.93,4.67,312.16-3.69,1.23-239.65-.91-207.66-9.52,31.99-8.61,236.21,4.27,237.44-9.26,1.23-13.53-19.69-64.55-2.46-64.55h27.07s15.99,70.12,3.69,71.35c-12.3,1.24,13.53-2.46,22.14-2.46,0,0,26.28.78,16.46.78s-17.68-30.45-15.71-82.5c1.96-52.05,8.84-78.57,3.93-79.56-4.92-.98-25.54-3.93-10.8.99,14.73,4.91,147.33,11.78,144.38,2.95-2.95-8.84-49.11-41.26-53.04-56.97-3.93-15.72-11.79-99.2-17.68-89.38-5.89,9.82-20.63,91.34-30.45,99.2-9.81,7.85-32.41,16.7-23.57,22.58,8.84,5.89,56.96-2.95,57.95,2.95.98,5.9-.99,79.56,6.88,73.66,7.85-5.89,18.66-22.59,21.6-13.75,2.95,8.84,11.79,24.55,19.65,18.66,7.85-5.89,13.75-52.06,13.75-31.44s6.88,139.11,0,142.06c-6.88,2.95-74.64-1.61-49.1-5.53,25.53-3.93,90.8-3.93,90.8-3.93"/></svg>