<?xml version="1.0" encoding="UTF-8"?><svg height="1.5em" id="a" xmlns="http://www.w3.org/2000/svg" viewBox="0 0 1912.8 281.7"><path d="M61.6,5.4h79l10.5,157h.6L227.6,5.4h79l-46,220.3h-54.3l41.3-174.9h-.6l-87,174.9h-44.1l-13-174.9h-.6l-32.7,174.9H15.3L61.6,5.4h0Z"/><path d="M352.5,158.7c0-21.6,11.1-59.2,39.5-59.2s26.5,14.2,26.5,34.2-10.5,58-40.4,58-25.6-14.8-25.6-33h0ZM300,160.5c0,47.2,32.4,69.7,76.8,69.7s94.1-41.6,94.1-98.7-31.8-70.6-75.6-70.6-95.3,42.9-95.3,99.6h0Z"/><path d="M608.2,131.2c0,23.1-12.3,58.9-41.7,58.9s-26.2-12.3-26.2-29c0-25.3,10.2-60.2,41.6-60.2s26.2,12,26.2,30.2h0l.1.1ZM474.3,225.6h50l4.6-22.5h.6c8.3,19.7,22.5,27.1,46.9,27.1,54.6,0,84.2-51.5,84.2-102.1s-17.6-67.2-56.5-67.2-35.5,6.8-46.9,21.3h-.6l16-76.8h-52.4l-46,220.3h0l.1-.1Z"/><path d="M698,65.5h52.4l-33.3,160.1h-52.4l33.3-160.1ZM754.7,45.5h-52.4l8.3-40.1h52.4l-8.3,40.1Z"/><path d="M916.1,70.5c.9-34.9-20.4-45.7-50.6-45.7s-50.9,9.9-50.9,36.1,15.7,29.9,35.8,35.5l29.6,8c27.5,7.4,53.1,20.1,53.1,59.5s-46,66.9-85.8,66.9-90.4-23.4-86.7-77.4h29.3c-1.9,39.8,22.8,52.7,58.6,52.7s55.2-12.6,55.2-42.3-17.6-30.5-39.2-36.4l-29.9-8c-26.2-7.1-49.4-23.1-49.4-55.5S826.2,0,865.4,0s81.4,21.3,79.9,70.3h-29.3l.1.2Z"/><path d="M1201.4,113c1.2-18.2-14.8-27.5-33-27.5s-33.9,4.3-33.9,20.4,21,20.7,42,29.3,42.3,19.7,42.3,44.7c0,35.5-34.2,49.4-65.1,49.4s-64.8-13.3-64.5-54h26.2c-1.2,23.8,18.8,30.8,40.7,30.8s36.4-6.2,36.4-24.4-21-21.6-42-30.2c-21.3-8.3-42.3-19.1-42.3-43.2s29.6-46,59.2-46,60.2,13.3,60.2,50.6h-26.2v.1Z"/><path d="M1903.8,281.7h-886.6l12.7-21h882.9l-9,20.7v.3Z"/><path d="M896.8,260.7H4.4l-4.4,20.5s665.8.4,884.1.5l12.7-21h0Z"/><path d="M1076.8,66.1l-66.9,126.8h-.6l-18.5-126.8h-28.1l28.1,159.5-12,17.8c-6.2,10.2-13,17.3-24.7,17.3h-19.8l-12.5,21h30.8c26.8,0,38.6-17,51.5-37.6l101.5-177.9h-28.7l-.1-.1Z"/><path d="M1269.1,84.1h27.3c.3-6.7,1.8-13,3.9-19.4,2.1-6.1,5.5-11.5,9.4-16.1,3.9-4.5,8.5-8.2,14.2-10.9,5.8-2.7,12.1-3.9,19.4-3.9,11.2,0,20,3,26.4,9.4s9.7,15.2,9.7,26.7-.6,10.3-2.1,14.6c-1.5,4.2-3.3,8.2-5.8,11.5-2.7,3.6-5.8,7-9.1,10-3.3,3.3-7,6.4-10.9,9.4-7,5.2-14.6,10-22.1,14.6-7.6,4.5-15.2,9.1-22.7,13.6-7.6,4.5-14.6,9.4-21.5,14.6-7,5.2-13,10.9-18.2,17.3-5.5,6.4-10,13.6-13.3,21.8-3.6,8.2-5.8,17.9-6.7,28.8h136.7l4.9-22.7h-111.9c1.5-3.9,3.3-7.6,6.1-11.2,2.7-3.3,5.5-6.7,8.8-10,3-3,6.4-5.8,10-8.5,3.3-2.7,7-5.2,10.3-7.3,6.1-3.9,12.7-7.9,19.7-11.8s14.2-7.9,21.2-12.4c7-4.2,13.9-8.8,20.3-13.9,6.4-4.9,12.1-10.3,17.3-16.4,4.9-5.8,8.8-12.4,11.8-19.7,3-7,4.5-14.9,4.5-23.6s-1.5-17-4.5-24-7.3-13-12.4-18.2c-5.5-4.9-11.8-8.5-19.1-11.2-7.6-2.7-15.5-3.9-24.3-3.9s-21.8,1.8-30.9,5.2c-9.1,3.3-17,8.2-23.3,14.6-6.4,6.7-11.5,14.2-15.5,23-3.9,9.1-6.4,19.1-7.6,30.3v-.3Z"/><path d="M1452,150.5c0-5.2.6-11.5,1.5-19.1s2.7-15.8,4.9-24.6c2.1-8.8,5.2-17.3,8.5-26.1s7.6-16.7,12.4-23.6c4.5-7,10-12.4,16.4-17,6.4-4.2,13.3-6.4,20.9-6.4s11.5.9,15.5,3c3.9,2.4,7.3,5.2,9.7,8.5,2.4,3.6,4.2,7.9,5.5,12.4.9,4.5,1.8,9.4,2.1,14.2,0,4.9.3,9.7.3,14.2-.3,4.9-.3,9.4-.3,13.3s-.3,7.9-1.2,14.2c-1.2,6.7-2.4,13.9-4.2,21.8-2.1,8.2-4.5,16.4-7.6,24.6-3.3,8.5-7.3,16.1-11.8,23-4.5,7-10,12.4-16.4,17s-13.3,6.7-21.2,6.7c-12.7,0-21.8-5.2-27-15.5-5.2-10-7.9-23.6-7.9-40.9l-.1.3ZM1424.7,146.3c0,11.8.9,22.7,3,32.7,1.8,10,5.2,18.8,9.7,26.4,4.5,7.6,10.6,13.3,18.5,17.6,7.6,4.2,17,6.4,28.2,6.4s22.4-2.4,31.5-7.6c9.1-4.9,17-11.2,24-19.1,7-7.9,12.7-17,17.6-27,4.5-10,8.5-20,11.2-30.3,2.7-10,4.9-19.7,6.4-29.1,1.2-9.4,1.8-17.3,1.8-24,0-28.8-4.9-49.4-14.9-62.2-10-12.7-24.3-19.1-43.1-19.1s-21.2,2.1-30.3,6.7c-9.1,4.5-17,10.3-24,17.6s-12.7,15.8-17.9,25.2c-5.2,9.4-9.1,19.1-12.4,29.1s-5.5,20-7,29.7c-1.5,10-2.4,18.8-2.4,27h.1Z"/><path d="M1606.3,84.1h27.3c.3-6.7,1.8-13,3.9-19.4,2.1-6.1,5.5-11.5,9.4-16.1,3.9-4.5,8.5-8.2,14.2-10.9,5.8-2.7,12.1-3.9,19.4-3.9,11.2,0,20,3,26.4,9.4s9.7,15.2,9.7,26.7-.6,10.3-2.1,14.6c-1.5,4.2-3.3,8.2-5.8,11.5-2.7,3.6-5.8,7-9.1,10-3.3,3.3-7,6.4-10.9,9.4-7,5.2-14.6,10-22.1,14.6-7.6,4.5-15.2,9.1-22.7,13.6-7.6,4.5-14.6,9.4-21.5,14.6-7,5.2-13,10.9-18.2,17.3-5.5,6.4-10,13.6-13.3,21.8-3.6,8.2-5.8,17.9-6.7,28.8h136.7l4.9-22.7h-111.9c1.5-3.9,3.3-7.6,6.1-11.2,2.7-3.3,5.5-6.7,8.8-10,3-3,6.4-5.8,10-8.5,3.3-2.7,7-5.2,10.3-7.3,6.1-3.9,12.7-7.9,19.7-11.8s14.2-7.9,21.2-12.4c7-4.2,13.9-8.8,20.3-13.9,6.4-4.9,12.1-10.3,17.3-16.4,4.9-5.8,8.8-12.4,11.8-19.7,3-7,4.5-14.9,4.5-23.6s-1.5-17-4.5-24-7.3-13-12.4-18.2c-5.5-4.9-11.8-8.5-19.1-11.2-7.6-2.7-15.5-3.9-24.3-3.9s-21.8,1.8-30.9,5.2c-9.1,3.3-17,8.2-23.3,14.6-6.4,6.7-11.5,14.2-15.5,23-3.9,9.1-6.4,19.1-7.6,30.3v-.3Z"/><path d="M1908.2,37.4l4.5-22.7h-108.8l-33.4,113.4h23c3.6-6.4,9.1-11.5,16.1-15.5,7-3.6,14.6-5.5,22.1-5.5,13.9,0,24.6,3.6,31.8,11.2,7.3,7.6,10.9,18.2,10.9,32.1s-1.2,14.9-3.3,21.8c-2.4,7-5.8,12.7-10,17.9-4.5,5.5-10,9.4-16.4,12.1-6.4,3-13.9,4.5-22.4,4.5-25.8,0-38.8-12.7-38.8-38.5h-27.3c0,19.7,5.8,34.6,17.6,45.2,11.8,10.6,27.3,15.8,47,15.8s21.2-1.5,30.3-4.5,17.9-8.2,26.4-15.5c8.5-7.6,14.6-16.7,18.5-27.3,3.9-10.3,5.8-21.2,5.8-32.7s-1.2-17.6-3.9-25.8c-2.7-7.9-6.7-14.9-11.5-20.6-5.2-5.8-11.5-10.3-19.1-13.6s-16.1-4.9-25.8-4.9-13.3.9-20,2.7c-6.7,2.1-12.7,5.2-17.9,9.1l-.6-.6,17-58.2h88.2v.1Z"/></svg>